<?xml version="1.0" encoding="UTF-8" standalone="no"?>
<svg width="620px" height="168px" viewBox="0 0 620 168" version="1.1" xmlns="http://www.w3.org/2000/svg" xmlns:xlink="http://www.w3.org/1999/xlink">
    <!-- Generator: Sketch 3.7.2 (28276) - http://www.bohemiancoding.com/sketch -->
    <title>Goal Logo - White</title>
    <desc>Created with Sketch.</desc>
    <defs>
        <polygon id="path-1" points="512.22999 167.94 0.06 167.94 0.06 0.775 256.144995 0.775 512.22999 0.775 512.22999 167.94"></polygon>
    </defs>
    <g id="Page-1" stroke="none" stroke-width="1" fill="none" fill-rule="evenodd">
        <g id="Goal-Logo---White">
            <path d="M535.078,3.941 C537.712,3.941 539.847,6.076 539.847,8.709 L539.847,157.034 L614.272,157.034 C616.905,157.034 619.04,159.169 619.04,161.802 C619.04,164.435 616.905,166.571 614.272,166.571 L535.303,166.571 C532.547,166.571 530.309,164.628 530.309,161.802 L530.309,8.709 C530.309,6.076 532.445,3.941 535.078,3.941" id="Fill-1" fill="#FFFFFF"></path>
            <g id="Group-7">
                <mask id="mask-2" fill="white">
                    <use xlink:href="#path-1"></use>
                </mask>
                <g id="Clip-3"></g>
                <path d="M422.633,24.227 L377.58,102.261 L467.686,102.261 L422.633,24.227 L422.633,24.227 Z M372.074,111.797 L341.936,163.999 C340.619,166.278 337.702,167.061 335.422,165.744 C333.142,164.427 332.361,161.511 333.677,159.229 L418.252,12.741 C419.179,11.134 420.9,10.272 422.633,10.363 C424.367,10.272 426.088,11.134 427.015,12.741 L511.591,159.229 C512.907,161.511 512.125,164.427 509.845,165.744 C507.564,167.061 504.648,166.278 503.331,163.999 L473.193,111.797 L372.074,111.797 L372.074,111.797 Z" id="Fill-2" fill="#FFFFFF" mask="url(#mask-2)"></path>
                <path d="M342.645,99.08 C338.308,106.621 330.717,113.344 320.772,118.756 C318.178,120.167 315.423,121.491 312.523,122.716 C309.692,130.351 306.044,137.302 301.738,143.336 C295.641,151.881 288.226,158.599 279.951,162.851 C295.049,159.226 308.539,151.75 319.202,141.58 C331.101,130.231 339.48,115.525 342.645,99.08 L342.645,99.08 Z M238.323,162.851 C230.047,158.599 222.633,151.881 216.537,143.336 C212.231,137.302 208.583,130.351 205.752,122.716 C202.852,121.491 200.095,120.167 197.501,118.756 C187.558,113.345 179.965,106.623 175.629,99.081 C178.794,115.526 187.173,130.232 199.073,141.58 C209.736,151.749 223.225,159.226 238.323,162.851 L238.323,162.851 Z M171.532,84.441 L171.531,84.386 L171.532,84.332 C171.547,61.257 181.36,40.367 197.217,25.243 C213.069,10.126 234.962,0.775 259.137,0.775 C283.313,0.775 305.206,10.126 321.057,25.243 C336.927,40.378 346.743,61.288 346.743,84.386 C346.743,107.486 336.927,128.396 321.057,143.531 C305.206,158.65 283.313,168 259.137,168 C234.962,168 213.069,158.65 197.217,143.531 C181.359,128.407 171.547,107.518 171.532,84.441 L171.532,84.441 Z M175.629,69.694 C179.966,62.153 187.558,55.429 197.501,50.018 C200.096,48.607 202.852,47.283 205.752,46.058 C208.583,38.423 212.231,31.472 216.537,25.438 C222.633,16.893 230.047,10.177 238.323,5.925 C223.225,9.55 209.736,17.025 199.073,27.194 C187.173,38.544 178.794,53.25 175.629,69.694 L175.629,69.694 Z M279.951,5.925 C288.227,10.177 295.641,16.893 301.738,25.438 C306.043,31.472 309.692,38.423 312.522,46.058 C315.423,47.285 318.178,48.607 320.772,50.018 C330.717,55.429 338.308,62.153 342.645,69.694 C339.48,53.25 331.101,38.544 319.202,27.194 C308.539,17.025 295.049,9.55 279.951,5.925 L279.951,5.925 Z M174.231,84.339 L174.231,84.436 C174.256,96.846 183.636,108.149 198.788,116.393 C200.623,117.391 202.543,118.345 204.54,119.25 C201.042,108.638 199.091,96.828 199.091,84.386 C199.091,71.946 201.042,60.136 204.54,49.524 C202.543,50.429 200.623,51.382 198.788,52.381 C183.636,60.625 174.256,71.929 174.231,84.339 L174.231,84.339 Z M309.109,124.088 C301.997,126.803 294.114,128.956 285.675,130.425 C284.556,134.957 283.276,139.176 281.858,143.02 C278.303,152.656 273.841,159.996 268.798,164.152 C280.687,161.298 291.342,153.272 299.546,141.776 C303.279,136.542 306.504,130.593 309.109,124.088 L309.109,124.088 Z M249.475,164.152 C244.433,159.996 239.971,152.656 236.417,143.02 C234.999,139.176 233.719,134.957 232.6,130.425 C224.16,128.956 216.276,126.803 209.165,124.088 C211.77,130.593 214.995,136.542 218.729,141.776 C226.932,153.272 237.587,161.298 249.475,164.152 L249.475,164.152 Z M209.165,44.687 C216.277,41.971 224.16,39.82 232.6,38.35 C233.719,33.818 234.999,29.6 236.417,25.755 C239.971,16.12 244.433,8.779 249.475,4.623 C237.587,7.476 226.932,15.503 218.729,27 C214.995,32.231 211.77,38.181 209.165,44.687 L209.165,44.687 Z M268.798,4.623 C273.841,8.779 278.303,16.12 281.858,25.755 C283.276,29.6 284.555,33.818 285.675,38.35 C294.113,39.82 301.998,41.971 309.109,44.687 C306.504,38.181 303.279,32.231 299.545,27 C291.342,15.503 280.687,7.476 268.798,4.623 L268.798,4.623 Z M313.735,49.524 C317.231,60.136 319.183,71.946 319.183,84.386 C319.183,96.828 317.232,108.638 313.735,119.25 C315.731,118.345 317.651,117.391 319.486,116.393 C334.659,108.138 344.044,96.816 344.044,84.386 C344.044,71.958 334.658,60.636 319.486,52.381 C317.65,51.382 315.731,50.429 313.735,49.524 L313.735,49.524 Z M207.88,48.086 C203.983,59.003 201.79,71.332 201.79,84.386 C201.79,97.442 203.984,109.771 207.88,120.688 C215.088,123.635 223.188,125.975 231.925,127.569 C229.083,114.982 227.445,100.196 227.445,84.386 C227.445,68.577 229.083,53.793 231.925,41.206 C223.188,42.799 215.088,45.139 207.88,48.086 L207.88,48.086 Z M310.395,120.688 C314.291,109.771 316.484,97.442 316.484,84.386 C316.484,71.332 314.291,59.003 310.395,48.086 C303.187,45.139 295.086,42.799 286.349,41.206 C289.192,53.793 290.829,68.577 290.829,84.386 C290.829,100.196 289.192,114.982 286.349,127.569 C295.086,125.975 303.187,123.634 310.395,120.688 L310.395,120.688 Z M282.776,130.9 C275.256,132.055 267.327,132.672 259.137,132.672 C250.947,132.672 243.019,132.053 235.498,130.9 C236.525,134.909 237.679,138.654 238.947,142.092 C244.236,156.431 251.384,165.301 259.137,165.301 C266.89,165.301 274.039,156.431 279.327,142.092 C280.595,138.654 281.75,134.909 282.776,130.9 L282.776,130.9 Z M235.498,37.875 C243.019,36.72 250.947,36.103 259.137,36.103 C267.327,36.103 275.256,36.72 282.776,37.875 C281.75,33.866 280.595,30.121 279.327,26.683 C274.039,12.344 266.89,3.475 259.137,3.475 C251.384,3.475 244.236,12.344 238.947,26.683 C237.679,30.121 236.525,33.866 235.498,37.875 L235.498,37.875 Z M234.804,40.711 C231.854,53.33 230.145,68.309 230.145,84.386 C230.145,100.465 231.854,115.445 234.804,128.064 C242.513,129.305 250.68,129.972 259.137,129.972 C267.595,129.972 275.762,129.305 283.47,128.064 C286.421,115.445 288.129,100.465 288.129,84.386 C288.129,68.309 286.421,53.33 283.47,40.711 C275.762,39.469 267.595,38.803 259.137,38.803 C250.68,38.803 242.513,39.469 234.804,40.711 L234.804,40.711 Z" id="Fill-4" fill="#FFFFFF" mask="url(#mask-2)"></path>
                <path d="M341.563,113.45 L333.393,113.45 L331.233,118.037 L328.723,117.342 L328.723,121.466 L326.562,123.506 L329.449,126.239 L330.413,132.911 C330.413,132.911 339.309,120.169 341.563,113.45 L341.563,113.45 Z M252.264,43.65 L249.345,42.727 L251.877,40.319 L257.51,37.933 L255.001,40.319 L255.001,43.65 L252.264,43.65 L252.264,43.65 Z M246.505,3.735 L242.49,7.556 L238.148,11.682 L230.589,11.706 L228.828,18.203 L225.071,21.748 L213.849,21.748 L209.601,25.779 L205.468,29.718 L207.932,32.08 L211.079,29.07 L216.361,25.642 L220.07,29.163 L215.024,37.689 L207.627,39.587 L198.061,44.453 L194.915,50.431 L189.975,55.134 L184.856,60.023 L184.856,68.829 L181.991,66.093 L181.991,62.803 L178.776,65.862 L177.156,77.445 L174.796,83.817 L172.93,77.445 C170.076,76.445 182,12.609 246.505,3.735 L246.505,3.735 Z M258.783,66.325 L261.131,64.1 L264.396,64.1 L268.879,64.935 L270.711,66.65 L270.711,70.077 L273.034,72.303 L278.27,70.773 L280.243,68.897 L286.017,70.473 L289.328,73.599 L292.497,70.588 L294.845,68.363 L294.845,65.979 L289.797,64.262 L286.861,62.547 L285.783,59.466 L290.15,59.466 L294.845,58.1 L297.005,58.1 L297.005,55.713 L295.383,54.161 L292.308,54.322 L290.525,54.322 L288.881,52.795 L286.559,55.018 L284.844,56.64 L283.294,58.448 L280.43,58.448 L278.457,56.548 L275.546,53.815 L271.79,53.815 L272.87,56.387 L275.382,58.795 L278.27,61.53 L276.462,61.53 L274.303,63.592 L274.303,60.856 L268.879,55.713 L264.396,55.713 L262.047,57.081 L259.701,59.306 L257.728,61.181 L257.728,63.914 L253.385,63.914 L251.037,61.691 L253.385,56.387 L258.456,56.387 L258.456,49.552 L262.4,49.552 L264.396,45.425 L267.8,45.425 L272.87,44.059 L276.112,44.059 L278.811,41.487 L278.811,36.182 L276.555,34.051 L273.761,36.716 L273.761,41.326 L270.334,41.326 L267.634,41.836 L265.637,39.96 L265.637,35.834 L270.145,31.573 L273.574,28.327 L279.865,30.367 L284.751,31.735 L289.797,31.735 L293.387,28.327 L296.276,25.57 L298.131,23.81 L306.723,23.81 L313.549,19.996 C314.251,18.61 347.524,41.819 346.728,86.18 C346.728,94.73 343.842,106.73 343.842,106.73 L343.842,97.139 C343.842,93.71 343.488,88.913 343.488,88.913 L341.33,84.118 C341.33,84.118 338.464,82.08 338.464,84.118 C338.418,86.18 336.634,91.323 336.634,91.323 L335.552,99.2 L332.501,96.305 L332.501,83.793 L326.915,81.386 L326.915,77.955 L325.833,75.916 L323.674,77.955 L320.857,76.15 L317.336,79.485 L319.354,86.18 L316.819,86.18 L314.66,89.957 L309.682,93.107 L303.859,83.793 L300.432,80.527 L296.817,77.122 L295.924,73.184 L293.387,73.855 L293.387,77.284 L297.378,81.037 L299.704,86.18 L302.92,90.142 L306.395,93.385 L306.395,97.487 L312.123,97.487 L309.611,103.998 L301.51,111.69 L298.083,119.058 L298.083,124.895 L295.383,127.445 L287.613,138.564 L278.599,146.117 L275.357,143.06 L270.711,140.626 L270.711,123.506 L269.254,115.976 L267.095,111.18 L262.962,107.24 L257.375,106.73 L249.793,106.73 L247.468,104.507 L242.726,101.264 L240.331,98.946 L238.617,92.69 L238.617,86.18 L242.35,81.386 L245.824,74.55 L252.68,68.041 L256.624,68.041 L258.783,66.325 L258.783,66.325 Z M190.325,91.995 L190.325,101.587 L192.849,109.14 L197.181,119.058 L206.901,131.058 L217.371,144.056 L229.603,150.566 L240.706,158.583 C240.706,158.583 247.046,164.443 247.046,161.525 C247.046,158.583 246.011,157.586 246.011,157.586 C246.011,157.586 244.228,156.567 242.961,155.341 C241.693,154.156 231.951,148.34 231.951,148.34 L224.744,141.485 L224.744,135.505 L222.043,127.63 L222.043,118.363 L224.93,115.627 L224.93,111.528 L222.043,108.77 L215.916,108.77 L212.863,105.874 L207.277,100.57 L201.677,95.262 L201.677,93.039 L199.611,91.07 L197.993,89.54 L194.47,86.18 L191.77,89.957 L190.325,91.995 L190.325,91.995 Z" id="Fill-5" fill="#FFFFFF" mask="url(#mask-2)"></path>
                <path d="M81.334,3.904 C102.885,3.904 122.475,12.289 137.029,25.972 C138.094,27.036 138.928,28.225 138.928,29.782 C138.928,32.416 136.792,34.552 134.158,34.552 C132.601,34.552 131.309,33.738 130.502,32.931 C117.655,20.85 100.36,13.445 81.334,13.445 C41.684,13.445 9.542,45.588 9.542,85.237 C9.542,124.887 41.684,157.029 81.334,157.029 C112.725,157.029 139.404,136.879 149.157,108.81 L81.336,108.81 C78.7,108.81 76.563,106.673 76.563,104.037 C76.563,101.401 78.7,99.264 81.336,99.264 L151.752,99.264 L151.752,99.263 L151.756,99.264 L155.559,99.264 C158.166,99.264 160.285,101.355 160.331,103.951 C160.331,105.151 159.848,106.533 159.721,106.991 C150.208,141.347 118.718,166.571 81.334,166.571 C36.414,166.571 0,130.156 0,85.237 C0,40.318 36.414,3.904 81.334,3.904" id="Fill-6" fill="#FFFFFF" mask="url(#mask-2)"></path>
            </g>
        </g>
    </g>
</svg>