<?xml version="1.0" encoding="UTF-8" standalone="no"?>
<!-- Created with Inkscape (http://www.inkscape.org/) -->
<svg
   xmlns:svg="http://www.w3.org/2000/svg"
   xmlns="http://www.w3.org/2000/svg"
   version="1.0"
   width="744.09448"
   height="248.03149"
   id="svg4313">
  <defs
     id="defs4315" />
  <g
     transform="translate(-1434.442,-133.9132)"
     id="layer1">
    <g
       transform="translate(-12.80105,-3.178318)"
       id="g11852">
      <g
         id="g11838">
        <path
           d="M 1657.5867,155.20284 C 1657.5867,155.20284 1657.5867,253.66515 1657.5867,253.66515 C 1656.2783,296.05518 1631.5303,337.27854 1591.9686,356.1225 C 1581.8927,360.75395 1571.3215,364.39546 1560.2204,366.76424 C 1533.8812,360.01151 1508.9917,346.93036 1490.8194,323.98526 C 1471.5158,300.08562 1464.0559,270.21104 1465.0459,238.14451 C 1465.0459,238.14451 1465.0459,155.20284 1465.0459,155.20284 L 1657.5867,155.20284 z "
           style="fill:#bf2426;fill-rule:nonzero;stroke:none"
           id="path11486" />
        <path
           d="M 37.625,28.3125 C 37.625,28.3125 38.531249,112.03125 38.53125,112.03125 C 39.27395,139.11281 45.551801,163.82992 62.0625,184.40625 C 78.679,206.39674 102.2578,218.11155 126.6875,224.6875 C 140.0869,220.76313 153.32074,216.49674 165.09375,208.71875 C 195.95825,189.09697 213.14896,156.06503 215.09375,120.78125 C 215.09375,120.78125 216.03125,28.3125 216.03125,28.3125 L 37.625,28.3125 z M 203.03125,33.84375 L 210.3125,33.875 C 210.3125,33.875001 210.28125,109.9375 210.28125,109.9375 C 211.16535,150.277 191.9152,188.51713 155.5,207.75 C 146.44929,212.77032 136.6032,216.24645 126.5625,218.96875 C 102.345,212.88778 79.96805,199.42643 64.09375,177.71875 C 51.189348,160.0415 45.1857,139.58333 44.125,117.0625 C 44.124999,117.0625 44.125,34.03125 44.125,34.03125 L 44.125,33.875 L 148.625,33.875 L 203.03125,33.84375 z "
           transform="translate(1434.442,133.9132)"
           style="fill:white;fill-rule:nonzero;stroke:none"
           id="path11494" />
        <path
           d="M 1561.4577,211.62865 C 1561.4577,211.62865 1587.3727,186.7744 1587.3727,186.7744 C 1583.9078,195.75444 1561.6698,250.12971 1561.6698,250.12971 C 1561.6698,250.12971 1535.8255,186.38552 1535.8255,186.38552 M 1561.5991,250.16506 C 1560.079,250.87214 1501.4259,274.0647 1498.5974,275.16069 C 1506.4109,266.92309 1515.0374,258.79155 1522.9919,250.23577 C 1522.9919,250.23577 1499.4811,224.92193 1499.4811,224.92193 C 1499.4811,224.92193 1561.5991,250.16506 1561.5991,250.16506 z M 1624.0352,225.41688 C 1623.9645,225.52295 1608.55,242.28097 1600.5951,250.16506 C 1600.5951,250.16506 1624.3532,274.48897 1624.3532,274.48897 C 1621.9845,274.0647 1561.7757,250.16506 1561.7757,250.16506 C 1561.7757,250.16506 1621.313,226.26539 1624.0352,225.41688 M 1586.4535,313.30819 C 1582.2814,309.73739 1570.0842,296.55017 1561.6698,288.66612 C 1552.9019,296.72695 1544.629,306.2373 1535.7197,313.6264 C 1536.4975,311.01017 1561.6698,250.23577 1561.6698,250.23577 C 1564.6398,256.8824 1585.6401,310.58589 1586.4535,313.30819"
           style="fill:white;fill-rule:nonzero;stroke:none"
           id="path11502" />
      </g>
      <g
         id="g11843">
        <path
           d="M 1704.0426,355.48613 C 1704.0426,349.29909 1706.1284,347.1071 1708.7444,347.1071 C 1711.3607,347.1071 1713.4465,349.29909 1713.4465,355.48613 C 1713.4465,361.67316 1711.3607,363.90052 1708.7444,363.90052 C 1706.1284,363.90052 1704.0426,361.67316 1704.0426,355.48613 C 1704.0426,355.48613 1704.0426,355.48613 1704.0426,355.48613 z M 1699.7999,355.48613 C 1699.7999,363.58231 1704.0778,367.04705 1708.7444,367.04705 C 1713.4114,367.04705 1717.6893,363.58231 1717.6893,355.48613 C 1717.6893,347.4253 1713.4114,343.92521 1708.7444,343.92521 C 1704.0778,343.92521 1699.7999,347.4253 1699.7999,355.48613 C 1699.7999,355.48613 1699.7999,355.48613 1699.7999,355.48613 z M 1721.2956,366.72889 L 1725.2906,366.72889 C 1725.2906,366.72889 1725.2906,357.64277 1725.2906,357.64277 C 1725.2906,354.56691 1727.0936,353.57698 1728.7551,353.57698 C 1729.1794,353.57698 1729.5329,353.61234 1729.8865,353.71841 C 1729.8865,353.71841 1729.8865,349.97082 1729.8865,349.97082 C 1729.6392,349.97082 1729.4622,349.90011 1729.1794,349.90011 C 1726.7045,349.90011 1725.4672,351.87997 1724.9722,353.1881 C 1724.9722,353.1881 1724.9015,353.1881 1724.9015,353.1881 C 1724.9015,352.16282 1724.8308,351.13753 1724.7956,350.1476 C 1724.7956,350.1476 1721.1893,350.1476 1721.1893,350.1476 C 1721.26,350.89004 1721.2956,351.84461 1721.2956,352.8699 C 1721.2956,352.8699 1721.2956,366.72889 1721.2956,366.72889 L 1721.2956,366.72889 z M 1742.013,342.58176 L 1742.013,352.51638 C 1742.013,352.51638 1741.9423,352.51638 1741.9423,352.51638 C 1741.3766,351.2436 1740.0687,349.90011 1737.6644,349.90011 C 1734.0937,349.90011 1731.9372,353.04668 1731.9372,358.45592 C 1731.9372,363.05201 1733.6694,367.01169 1737.7707,367.01169 C 1740.3515,367.01169 1741.5536,365.56217 1742.19,364.14801 C 1742.19,364.14801 1742.2959,364.14801 1742.2959,364.14801 C 1742.2959,365.27933 1742.3314,366.26926 1742.4022,366.72889 C 1742.4022,366.72889 1746.1495,366.72889 1746.1495,366.72889 C 1746.0436,366.12783 1746.0081,365.10255 1746.0081,363.90052 C 1746.0081,363.90052 1746.0081,342.58176 1746.0081,342.58176 L 1742.013,342.58176 L 1742.013,342.58176 z M 1735.9322,358.27914 C 1735.9322,354.99118 1736.71,352.83454 1738.9373,352.83454 C 1741.1293,352.83454 1742.013,355.16792 1742.013,358.38521 C 1742.013,361.53174 1741.2352,364.0773 1738.8666,364.0773 C 1736.5686,364.0773 1735.9322,362.13279 1735.9322,358.27914 C 1735.9322,358.27914 1735.9322,358.27914 1735.9322,358.27914 z M 1761.8824,362.76916 C 1761.1401,363.33482 1759.9731,364.0773 1757.5338,364.0773 C 1754.4224,364.0773 1753.2914,362.34489 1753.2914,359.51656 C 1753.2914,359.51656 1762.9075,359.51656 1762.9075,359.51656 C 1762.9075,359.51656 1762.9075,358.73877 1762.9075,358.73877 C 1762.9075,351.98604 1759.8317,349.90011 1756.2609,349.90011 C 1752.0538,349.90011 1749.4374,353.71841 1749.4374,358.66806 C 1749.4374,363.15808 1751.7709,367.01169 1757.1095,367.01169 C 1759.4781,367.01169 1761.2108,366.30461 1762.0593,365.91574 C 1762.0593,365.91574 1761.8824,362.76916 1761.8824,362.76916 C 1761.8824,362.76916 1761.8824,362.76916 1761.8824,362.76916 z M 1753.2914,357.0064 C 1753.2914,354.8144 1754.1751,352.58705 1756.2609,352.58705 C 1758.0639,352.58705 1759.0187,354.07197 1759.0187,357.0064 C 1759.0187,357.0064 1753.2914,357.0064 1753.2914,357.0064 C 1753.2914,357.0064 1753.2914,357.0064 1753.2914,357.0064 z M 1766.3017,366.72889 L 1770.2967,366.72889 C 1770.2967,366.72889 1770.2967,357.64277 1770.2967,357.64277 C 1770.2967,354.56691 1772.0997,353.57698 1773.7616,353.57698 C 1774.1859,353.57698 1774.5394,353.61234 1774.893,353.71841 C 1774.893,353.71841 1774.893,349.97082 1774.893,349.97082 C 1774.6453,349.97082 1774.4687,349.90011 1774.1859,349.90011 C 1771.711,349.90011 1770.4737,351.87997 1769.9787,353.1881 C 1769.9787,353.1881 1769.908,353.1881 1769.908,353.1881 C 1769.908,352.16282 1769.8373,351.13753 1769.8017,350.1476 C 1769.8017,350.1476 1766.1958,350.1476 1766.1958,350.1476 C 1766.2665,350.89004 1766.3017,351.84461 1766.3017,352.8699 C 1766.3017,352.8699 1766.3017,366.72889 1766.3017,366.72889 L 1766.3017,366.72889 z M 1789.9539,358.42056 C 1789.9539,355.66291 1790.5547,352.72847 1793.1359,352.72847 C 1795.7167,352.72847 1796.2824,355.66291 1796.2824,358.42056 C 1796.2824,361.21358 1795.7167,364.14801 1793.1359,364.14801 C 1790.5547,364.14801 1789.9539,361.21358 1789.9539,358.42056 C 1789.9539,358.42056 1789.9539,358.42056 1789.9539,358.42056 z M 1785.8174,358.42056 C 1785.8174,365.38539 1789.7769,367.01169 1793.1359,367.01169 C 1796.5297,367.01169 1800.4189,365.38539 1800.4189,358.42056 C 1800.4189,351.66783 1796.5297,349.90011 1793.1359,349.90011 C 1789.7769,349.90011 1785.8174,351.66783 1785.8174,358.42056 C 1785.8174,358.42056 1785.8174,358.42056 1785.8174,358.42056 z M 1805.0503,366.72889 L 1809.0454,366.72889 L 1809.0454,353.08204 L 1812.0856,353.08204 L 1812.0856,350.1476 L 1809.0454,350.1476 C 1809.0454,350.1476 1809.0454,347.28388 1809.0454,347.28388 C 1809.0454,346.01114 1809.7877,345.23334 1810.9546,345.23334 C 1811.5203,345.23334 1812.0505,345.33941 1812.5454,345.4808 C 1812.5454,345.4808 1812.6869,342.58176 1812.6869,342.58176 C 1811.909,342.40498 1810.8839,342.19284 1809.8232,342.19284 C 1806.1817,342.19284 1805.0503,344.3848 1805.0503,346.75358 C 1805.0503,346.75358 1805.0503,350.1476 1805.0503,350.1476 L 1802.2926,350.1476 L 1802.2926,353.08204 L 1805.0503,353.08204 L 1805.0503,366.72889 L 1805.0503,366.72889 z M 1841.6069,366.72889 L 1845.3543,366.72889 L 1845.3543,344.24341 L 1839.4149,344.24341 L 1834.6771,361.0368 L 1834.6064,361.0368 L 1829.975,344.24341 L 1823.8234,344.24341 L 1823.8234,366.72889 L 1827.5356,366.72889 L 1827.5356,347.99096 L 1827.6063,347.99096 L 1832.9805,366.72889 L 1835.9148,366.72889 L 1841.5362,347.99096 L 1841.6069,347.99096 L 1841.6069,366.72889 L 1841.6069,366.72889 z M 1866.3902,366.72889 L 1870.3852,366.72889 L 1870.3852,342.58176 L 1866.3902,342.58176 L 1866.3902,366.72889 L 1866.3902,366.72889 z M 1876.0422,350.1476 L 1873.4258,350.1476 L 1873.4258,353.08204 L 1876.0422,353.08204 C 1876.0422,353.08204 1876.0422,362.16815 1876.0422,362.16815 C 1876.0422,365.63289 1877.7393,367.01169 1880.6736,367.01169 C 1881.8757,367.01169 1882.7594,366.72889 1883.3607,366.44604 C 1883.3607,366.44604 1883.3607,363.61767 1883.3607,363.61767 C 1883.0778,363.75909 1882.5473,363.97123 1881.8402,363.97123 C 1880.6736,363.97123 1880.0372,363.44089 1880.0372,361.67316 C 1880.0372,361.67316 1880.0372,353.08204 1880.0372,353.08204 L 1883.3607,353.08204 L 1883.3607,350.1476 L 1880.0372,350.1476 L 1880.0372,345.51615 L 1876.0422,346.71822 L 1876.0422,350.1476 L 1876.0422,350.1476 z M 1924.1948,366.72889 L 1929.1446,366.72889 L 1933.7761,344.24341 L 1930.0283,344.24341 L 1926.7404,361.5671 L 1926.7052,361.5671 L 1923.3466,344.24341 L 1918.326,344.24341 L 1914.9319,361.5671 L 1914.8612,361.5671 L 1911.7147,344.24341 L 1907.861,344.24341 L 1912.3866,366.72889 L 1917.2654,366.72889 L 1920.801,348.30916 L 1920.8717,348.30916 L 1924.1948,366.72889 L 1924.1948,366.72889 z M 1938.4427,358.42056 C 1938.4427,355.66291 1939.0791,352.72847 1941.6247,352.72847 C 1944.2055,352.72847 1944.8068,355.66291 1944.8068,358.42056 C 1944.8068,361.21358 1944.2055,364.14801 1941.6247,364.14801 C 1939.0791,364.14801 1938.4427,361.21358 1938.4427,358.42056 C 1938.4427,358.42056 1938.4427,358.42056 1938.4427,358.42056 z M 1934.3418,358.42056 C 1934.3418,365.38539 1938.2661,367.01169 1941.6247,367.01169 C 1945.0189,367.01169 1948.9077,365.38539 1948.9077,358.42056 C 1948.9077,351.66783 1945.0189,349.90011 1941.6247,349.90011 C 1938.2661,349.90011 1934.3418,351.66783 1934.3418,358.42056 C 1934.3418,358.42056 1934.3418,358.42056 1934.3418,358.42056 z M 1952.4077,366.72889 L 1956.4028,366.72889 C 1956.4028,366.72889 1956.4028,357.64277 1956.4028,357.64277 C 1956.4028,354.56691 1958.2061,353.57698 1959.8321,353.57698 C 1960.2564,353.57698 1960.6099,353.61234 1960.9635,353.71841 C 1960.9635,353.71841 1960.9635,349.97082 1960.9635,349.97082 C 1960.7514,349.97082 1960.5392,349.90011 1960.2919,349.90011 C 1957.817,349.90011 1956.5442,351.87997 1956.0848,353.1881 C 1956.0848,353.1881 1956.014,353.1881 1956.014,353.1881 C 1956.014,352.16282 1955.9078,351.13753 1955.8726,350.1476 C 1955.8726,350.1476 1952.2663,350.1476 1952.2663,350.1476 C 1952.3726,350.89004 1952.4077,351.84461 1952.4077,352.8699 C 1952.4077,352.8699 1952.4077,366.72889 1952.4077,366.72889 L 1952.4077,366.72889 z M 1964.1811,366.72889 L 1968.1757,366.72889 L 1968.1757,342.58176 L 1964.1811,342.58176 L 1964.1811,366.72889 L 1964.1811,366.72889 z M 1981.9994,342.58176 L 1981.9994,352.51638 C 1981.9994,352.51638 1981.9286,352.51638 1981.9286,352.51638 C 1981.3634,351.2436 1980.0198,349.90011 1977.6512,349.90011 C 1974.08,349.90011 1971.9235,353.04668 1971.9235,358.45592 C 1971.9235,363.05201 1973.6206,367.01169 1977.757,367.01169 C 1980.3378,367.01169 1981.5048,365.56217 1982.1763,364.14801 C 1982.1763,364.14801 1982.2471,364.14801 1982.2471,364.14801 C 1982.2471,365.27933 1982.3178,366.26926 1982.3885,366.72889 C 1982.3885,366.72889 1986.1362,366.72889 1986.1362,366.72889 C 1986.03,366.12783 1985.9948,365.10255 1985.9948,363.90052 C 1985.9948,363.90052 1985.9948,342.58176 1985.9948,342.58176 L 1981.9994,342.58176 L 1981.9994,342.58176 z M 1975.9185,358.27914 C 1975.9185,354.99118 1976.6963,352.83454 1978.9236,352.83454 C 1981.0805,352.83454 1981.9994,355.16792 1981.9994,358.38521 C 1981.9994,361.53174 1981.1864,364.0773 1978.8529,364.0773 C 1976.5198,364.0773 1975.9185,362.13279 1975.9185,358.27914 C 1975.9185,358.27914 1975.9185,358.27914 1975.9185,358.27914 z M 2003.0001,366.72889 L 2007.3487,366.72889 L 2011.768,350.1476 L 2007.9144,350.1476 L 2005.2273,363.05201 L 2005.1566,363.05201 L 2002.4344,350.1476 L 1997.8736,350.1476 L 1995.0807,363.05201 L 1995.01,363.05201 L 1992.3229,350.1476 L 1988.222,350.1476 L 1992.6765,366.72889 L 1997.0607,366.72889 L 1999.9599,353.82447 L 2000.0306,353.82447 L 2003.0001,366.72889 L 2003.0001,366.72889 z M 2014.3136,366.72889 L 2018.3087,366.72889 L 2018.3087,350.1476 L 2014.3136,350.1476 L 2014.3136,366.72889 L 2014.3136,366.72889 z M 2014.2429,347.03642 L 2018.3794,347.03642 L 2018.3794,343.0767 L 2014.2429,343.0767 L 2014.2429,347.03642 L 2014.2429,347.03642 z M 2032.1323,342.58176 L 2032.1323,352.51638 C 2032.1323,352.51638 2032.0616,352.51638 2032.0616,352.51638 C 2031.4603,351.2436 2030.1524,349.90011 2027.7837,349.90011 C 2024.1774,349.90011 2022.0209,353.04668 2022.0209,358.45592 C 2022.0209,363.05201 2023.7531,367.01169 2027.8544,367.01169 C 2030.4352,367.01169 2031.6373,365.56217 2032.2737,364.14801 C 2032.2737,364.14801 2032.3796,364.14801 2032.3796,364.14801 C 2032.3796,365.27933 2032.4503,366.26926 2032.4859,366.72889 C 2032.4859,366.72889 2036.2332,366.72889 2036.2332,366.72889 C 2036.1273,366.12783 2036.1273,365.10255 2036.1273,363.90052 C 2036.1273,363.90052 2036.1273,342.58176 2036.1273,342.58176 L 2032.1323,342.58176 L 2032.1323,342.58176 z M 2026.0159,358.27914 C 2026.0159,354.99118 2026.7937,352.83454 2029.021,352.83454 C 2031.213,352.83454 2032.1323,355.16792 2032.1323,358.38521 C 2032.1323,361.53174 2031.3189,364.0773 2028.9502,364.0773 C 2026.6523,364.0773 2026.0159,362.13279 2026.0159,358.27914 C 2026.0159,358.27914 2026.0159,358.27914 2026.0159,358.27914 z M 2051.9661,362.76916 C 2051.2238,363.33482 2050.0568,364.0773 2047.6175,364.0773 C 2044.5065,364.0773 2043.3751,362.34489 2043.3751,359.51656 C 2043.3751,359.51656 2052.9916,359.51656 2052.9916,359.51656 C 2052.9916,359.51656 2052.9916,358.73877 2052.9916,358.73877 C 2052.9916,351.98604 2049.9154,349.90011 2046.3446,349.90011 C 2042.1375,349.90011 2039.5215,353.71841 2039.5215,358.66806 C 2039.5215,363.15808 2041.8546,367.01169 2047.1932,367.01169 C 2049.5622,367.01169 2051.3296,366.30461 2052.143,365.91574 C 2052.143,365.91574 2051.9661,362.76916 2051.9661,362.76916 C 2051.9661,362.76916 2051.9661,362.76916 2051.9661,362.76916 z M 2043.3751,357.0064 C 2043.3751,354.8144 2044.2588,352.58705 2046.3446,352.58705 C 2048.148,352.58705 2049.138,354.07197 2049.138,357.0064 C 2049.138,357.0064 2043.3751,357.0064 2043.3751,357.0064 C 2043.3751,357.0064 2043.3751,357.0064 2043.3751,357.0064 z M 2065.224,366.72889 L 2069.3605,366.72889 L 2069.3605,357.07707 C 2069.3605,357.07707 2070.2797,357.07707 2070.2797,357.07707 C 2071.8002,357.07707 2072.8605,357.64277 2073.4262,359.4105 C 2073.4262,359.4105 2075.6183,366.72889 2075.6183,366.72889 L 2080.0024,366.72889 C 2080.0024,366.72889 2077.0677,358.17307 2077.0677,358.17307 C 2076.3961,356.08714 2075.4417,355.69827 2074.5932,355.55684 C 2074.5932,355.55684 2074.5932,355.45077 2074.5932,355.45077 C 2077.1032,355.0619 2078.9418,353.11739 2078.9418,350.18296 C 2078.9418,346.04649 2076.2547,344.24341 2072.2597,344.24341 C 2072.2597,344.24341 2065.224,344.24341 2065.224,344.24341 L 2065.224,366.72889 L 2065.224,366.72889 z M 2069.3605,354.03661 L 2069.3605,347.4253 C 2069.3605,347.4253 2071.0224,347.4253 2071.0224,347.4253 C 2073.3555,347.4253 2074.699,348.06167 2074.699,350.64259 C 2074.699,352.90526 2073.2141,354.03661 2071.0224,354.03661 C 2071.0224,354.03661 2069.3605,354.03661 2069.3605,354.03661 L 2069.3605,354.03661 z M 2094.9219,362.76916 C 2094.1796,363.33482 2093.0127,364.0773 2090.5733,364.0773 C 2087.4975,364.0773 2086.3661,362.34489 2086.3661,359.51656 C 2086.3661,359.51656 2095.947,359.51656 2095.947,359.51656 C 2095.947,359.51656 2095.947,358.73877 2095.947,358.73877 C 2095.947,351.98604 2092.9068,349.90011 2089.3356,349.90011 C 2085.0933,349.90011 2082.477,353.71841 2082.477,358.66806 C 2082.477,363.15808 2084.8105,367.01169 2090.149,367.01169 C 2092.5532,367.01169 2094.2855,366.30461 2095.134,365.91574 C 2095.134,365.91574 2094.9219,362.76916 2094.9219,362.76916 C 2094.9219,362.76916 2094.9219,362.76916 2094.9219,362.76916 z M 2086.3661,357.0064 C 2086.3661,354.8144 2087.2147,352.58705 2089.3356,352.58705 C 2091.139,352.58705 2092.0934,354.07197 2092.0934,357.0064 C 2092.0934,357.0064 2086.3661,357.0064 2086.3661,357.0064 C 2086.3661,357.0064 2086.3661,357.0064 2086.3661,357.0064 z M 2099.6241,366.72889 L 2103.6191,366.72889 L 2103.6191,342.58176 L 2099.6241,342.58176 L 2099.6241,366.72889 L 2099.6241,366.72889 z M 2108.215,366.72889 L 2112.21,366.72889 L 2112.21,350.1476 L 2108.215,350.1476 L 2108.215,366.72889 L 2108.215,366.72889 z M 2108.1443,347.03642 L 2112.2456,347.03642 L 2112.2456,343.0767 L 2108.1443,343.0767 L 2108.1443,347.03642 L 2108.1443,347.03642 z M 2128.3672,362.76916 C 2127.6249,363.33482 2126.4579,364.0773 2124.0186,364.0773 C 2120.9076,364.0773 2119.8114,362.34489 2119.8114,359.51656 C 2119.8114,359.51656 2129.3927,359.51656 2129.3927,359.51656 C 2129.3927,359.51656 2129.3927,358.73877 2129.3927,358.73877 C 2129.3927,351.98604 2126.3521,349.90011 2122.7457,349.90011 C 2118.5386,349.90011 2115.9226,353.71841 2115.9226,358.66806 C 2115.9226,363.15808 2118.2557,367.01169 2123.5943,367.01169 C 2125.9629,367.01169 2127.7308,366.30461 2128.5441,365.91574 C 2128.5441,365.91574 2128.3672,362.76916 2128.3672,362.76916 C 2128.3672,362.76916 2128.3672,362.76916 2128.3672,362.76916 z M 2119.8114,357.0064 C 2119.8114,354.8144 2120.6599,352.58705 2122.7457,352.58705 C 2124.5491,352.58705 2125.5387,354.07197 2125.5387,357.0064 C 2125.5387,357.0064 2119.8114,357.0064 2119.8114,357.0064 C 2119.8114,357.0064 2119.8114,357.0064 2119.8114,357.0064 z M 2133.953,366.72889 L 2137.9485,366.72889 L 2137.9485,353.08204 L 2140.9887,353.08204 L 2140.9887,350.1476 L 2137.9485,350.1476 C 2137.9485,350.1476 2137.9485,347.28388 2137.9485,347.28388 C 2137.9485,346.01114 2138.6907,345.23334 2139.8573,345.23334 C 2140.4585,345.23334 2140.9535,345.33941 2141.4485,345.4808 C 2141.4485,345.4808 2141.5899,342.58176 2141.5899,342.58176 C 2140.8121,342.40498 2139.7866,342.19284 2138.7263,342.19284 C 2135.0844,342.19284 2133.953,344.3848 2133.953,346.75358 C 2133.953,346.75358 2133.953,350.1476 2133.953,350.1476 L 2131.1957,350.1476 L 2131.1957,353.08204 L 2133.953,353.08204 L 2133.953,366.72889 z "
           style="fill:black;fill-rule:nonzero;stroke:none"
           id="path11518" />
        <path
           d="M 1749.5788,224.53302 L 1759.938,224.53302 L 1759.938,162.27374 L 1743.4273,162.27374 L 1730.3108,208.72957 L 1730.1342,208.72957 L 1717.3005,162.27374 L 1700.2593,162.27374 L 1700.2593,224.53302 L 1710.5829,224.53302 L 1710.5829,172.63261 L 1710.7599,172.63261 L 1725.6793,224.53302 L 1733.7757,224.53302 L 1749.4023,172.63261 L 1749.5788,172.63261 L 1749.5788,224.53302 L 1749.5788,224.53302 z M 1774.2917,190.20382 C 1776.4131,188.40074 1781.3274,185.78451 1786.8781,185.71379 C 1792.9238,185.67844 1795.469,189.24924 1795.469,193.77462 C 1795.469,193.77462 1795.469,195.50699 1795.469,195.50699 C 1795.469,195.50699 1793.2418,195.50699 1793.2418,195.50699 C 1779.2416,195.50699 1769.0239,199.28993 1769.0239,211.77007 C 1769.0239,220.32584 1775.6353,225.24014 1782.7417,225.24014 C 1789.353,225.24014 1792.7824,223.50773 1795.8582,220.00764 C 1795.8582,220.00764 1795.9996,222.83601 1796.4239,224.53302 C 1796.4239,224.53302 1806.3939,224.53302 1806.3939,224.53302 C 1806.1462,222.76529 1805.7575,219.72483 1805.7575,216.43683 C 1805.7575,216.43683 1805.7575,196.3555 1805.7575,196.3555 C 1805.7575,184.82993 1802.4696,177.86508 1788.1861,177.86508 C 1781.1504,177.86508 1776.7667,179.84493 1773.6553,181.25913 C 1773.6553,181.25913 1774.2917,190.20382 1774.2917,190.20382 C 1774.2917,190.20382 1774.2917,190.20382 1774.2917,190.20382 z M 1795.4339,204.62842 C 1795.4339,212.86603 1793.0297,217.74497 1786.4183,217.74497 C 1782.1404,217.74497 1779.383,214.9166 1779.383,210.70943 C 1779.383,204.02741 1785.004,202.04755 1794.4439,202.04755 C 1794.4439,202.04755 1795.4339,202.04755 1795.4339,202.04755 L 1795.4339,204.62842 C 1795.4339,204.62842 1795.4339,204.62842 1795.4339,204.62842 z M 1817.1062,224.53302 L 1828.172,224.53302 L 1828.172,155.16748 L 1817.1062,155.16748 L 1817.1062,224.53302 L 1817.1062,224.53302 z M 1843.3392,178.60752 L 1836.0207,178.60752 L 1836.0207,186.70368 L 1843.3392,186.70368 C 1843.3392,186.70368 1843.3392,211.8761 1843.3392,211.8761 C 1843.3392,221.49255 1847.9706,225.24014 1856.1728,225.24014 C 1859.4608,225.24014 1861.865,224.53302 1863.5621,223.71987 C 1863.5621,223.71987 1863.5621,215.87118 1863.5621,215.87118 C 1862.7842,216.33077 1861.3348,216.86111 1859.3901,216.86111 C 1856.1728,216.86111 1854.3699,215.4469 1854.3699,210.53265 C 1854.3699,210.53265 1854.3699,186.70368 1854.3699,186.70368 L 1863.5621,186.70368 L 1863.5621,178.60752 L 1854.3699,178.60752 L 1854.3699,165.73848 L 1843.3392,169.13251 L 1843.3392,178.60752 L 1843.3392,178.60752 z M 1903.7953,213.57311 C 1901.7446,215.09338 1898.5274,217.14392 1891.775,217.14392 C 1883.1837,217.14392 1880.0724,212.40644 1880.0724,204.55775 C 1880.0724,204.55775 1906.6589,204.55775 1906.6589,204.55775 C 1906.6589,204.55775 1906.6589,202.40111 1906.6589,202.40111 C 1906.6589,183.66322 1898.1739,177.86508 1888.2746,177.86508 C 1876.6079,177.86508 1869.3601,188.50681 1869.3601,202.22433 C 1869.3601,214.63375 1875.7945,225.24014 1890.6081,225.24014 C 1897.2195,225.24014 1902.0275,223.29563 1904.3258,222.3057 C 1904.3258,222.3057 1903.7953,213.57311 1903.7953,213.57311 C 1903.7953,213.57311 1903.7953,213.57311 1903.7953,213.57311 z M 1880.0724,197.59288 C 1880.0724,191.54727 1882.4766,185.36023 1888.2746,185.36023 C 1893.2596,185.36023 1895.9466,189.4967 1895.9466,197.59288 C 1895.9466,197.59288 1880.0724,197.59288 1880.0724,197.59288 C 1880.0724,197.59288 1880.0724,197.59288 1880.0724,197.59288 z M 1913.4473,223.01279 C 1915.7453,223.89665 1920.4826,225.24014 1926.1747,225.24014 C 1936.1803,225.24014 1943.3218,220.14906 1943.3218,211.69936 C 1943.3218,206.32547 1940.4582,203.7446 1934.766,200.10308 C 1934.766,200.10308 1929.3212,196.60295 1929.3212,196.60295 C 1926.104,194.55242 1924.124,193.24428 1924.124,190.73412 C 1924.124,187.97646 1925.9981,186.27945 1930.4881,186.27945 C 1934.4832,186.27945 1937.4175,187.23403 1940.2105,188.33002 C 1940.2105,188.33002 1940.8117,179.73887 1940.8117,179.73887 C 1939.751,179.38532 1935.1903,177.86508 1929.3212,177.86508 C 1919.5989,177.86508 1913.4473,184.58244 1913.4473,190.9109 C 1913.4473,198.12322 1918.503,201.05762 1923.1696,203.85063 C 1923.1696,203.85063 1927.6952,206.50221 1927.6952,206.50221 C 1931.7254,208.83564 1932.6091,210.53265 1932.6091,212.30037 C 1932.6091,215.87118 1929.4982,216.86111 1925.4676,216.86111 C 1920.306,216.86111 1915.7453,214.52768 1913.9775,213.8206 C 1913.9775,213.8206 1913.4473,223.01279 1913.4473,223.01279 C 1913.4473,223.01279 1913.4473,223.01279 1913.4473,223.01279 z M 1984.722,213.57311 C 1982.6713,215.09338 1979.4541,217.14392 1972.6662,217.14392 C 1964.1104,217.14392 1960.999,212.40644 1960.999,204.55775 C 1960.999,204.55775 1987.5501,204.55775 1987.5501,204.55775 C 1987.5501,204.55775 1987.5501,202.40111 1987.5501,202.40111 C 1987.5501,183.66322 1979.1006,177.86508 1969.2013,177.86508 C 1957.499,177.86508 1950.2868,188.50681 1950.2868,202.22433 C 1950.2868,214.63375 1956.6856,225.24014 1971.4992,225.24014 C 1978.1106,225.24014 1982.9186,223.29563 1985.2521,222.3057 C 1985.2521,222.3057 1984.722,213.57311 1984.722,213.57311 C 1984.722,213.57311 1984.722,213.57311 1984.722,213.57311 z M 1960.999,197.59288 C 1960.999,191.54727 1963.3677,185.36023 1969.2013,185.36023 C 1974.1863,185.36023 1976.8733,189.4967 1976.8733,197.59288 C 1976.8733,197.59288 1960.999,197.59288 1960.999,197.59288 C 1960.999,197.59288 1960.999,197.59288 1960.999,197.59288 z M 1996.495,224.53302 L 2007.5257,224.53302 C 2007.5257,224.53302 2007.5257,199.39596 2007.5257,199.39596 C 2007.5257,190.80483 2012.5458,188.04718 2017.0714,188.04718 C 2018.238,188.04718 2019.2279,188.22396 2020.2179,188.50681 C 2020.2179,188.50681 2020.2179,178.14791 2020.2179,178.14791 C 2019.5815,178.07721 2019.0509,177.86508 2018.3438,177.86508 C 2011.45,177.86508 2007.9851,183.41573 2006.6416,186.98653 C 2006.6416,186.98653 2006.465,186.98653 2006.465,186.98653 C 2006.465,184.22888 2006.2173,181.36516 2006.1114,178.60752 C 2006.1114,178.60752 1996.1058,178.60752 1996.1058,178.60752 C 1996.3887,180.65808 1996.495,183.30966 1996.495,186.17338 C 1996.495,186.17338 1996.495,224.53302 1996.495,224.53302 z "
           style="fill:black;fill-rule:nonzero;stroke:none"
           id="path11522" />
        <path
           d="M 1700.4363,313.34355 L 1711.8557,313.34355 L 1711.8557,250.16506 L 1700.4363,250.16506 L 1700.4363,313.34355 L 1700.4363,313.34355 z M 1723.5228,313.34355 L 1734.5887,313.34355 C 1734.5887,313.34355 1734.5887,286.58019 1734.5887,286.58019 C 1734.5887,280.71136 1736.6393,275.79706 1742.4373,275.79706 C 1746.9981,275.79706 1748.7659,278.7315 1748.7659,285.76704 C 1748.7659,285.76704 1748.7659,313.34355 1748.7659,313.34355 L 1759.8317,313.34355 C 1759.8317,313.34355 1759.8317,283.71647 1759.8317,283.71647 C 1759.8317,274.45361 1756.7208,266.67559 1746.2909,266.67559 C 1738.7958,266.67559 1735.6493,271.69596 1734.0585,274.45361 C 1734.0585,274.45361 1734.1292,274.45361 1734.1292,274.45361 C 1734.1292,274.45361 1733.8815,274.45361 1733.8815,274.45361 C 1733.8815,272.12019 1733.5987,269.7161 1733.528,267.41803 C 1733.528,267.41803 1723.1692,267.41803 1723.1692,267.41803 C 1723.4521,269.4686 1723.5228,272.12019 1723.5228,274.98391 C 1723.5228,274.98391 1723.5228,313.34355 1723.5228,313.34355 L 1723.5228,313.34355 z M 1773.9382,267.41803 L 1766.6201,267.41803 L 1766.6201,275.51422 L 1773.9382,275.51422 C 1773.9382,275.51422 1773.9382,300.68663 1773.9382,300.68663 C 1773.9382,310.30309 1778.5696,314.05063 1786.7718,314.05063 C 1790.0598,314.05063 1792.464,313.34355 1794.1962,312.5304 C 1794.1962,312.5304 1794.1962,304.68171 1794.1962,304.68171 C 1793.3832,305.1413 1791.9338,305.67164 1789.9891,305.67164 C 1786.7718,305.67164 1785.004,304.25743 1785.004,299.34318 C 1785.004,299.34318 1785.004,275.51422 1785.004,275.51422 L 1794.1962,275.51422 L 1794.1962,267.41803 L 1785.004,267.41803 L 1785.004,254.54902 L 1773.9382,257.94304 L 1773.9382,267.41803 L 1773.9382,267.41803 z M 1834.3943,302.38364 C 1832.344,303.86856 1829.162,305.95445 1822.374,305.95445 C 1813.7827,305.95445 1810.6718,301.21697 1810.6718,293.36828 C 1810.6718,293.36828 1837.2583,293.36828 1837.2583,293.36828 C 1837.2583,293.36828 1837.2583,291.21164 1837.2583,291.21164 C 1837.2583,272.47375 1828.7733,266.67559 1818.874,266.67559 C 1807.2069,266.67559 1799.9946,277.3173 1799.9946,291.03486 C 1799.9946,303.44428 1806.3939,314.05063 1821.2071,314.05063 C 1827.8185,314.05063 1832.6269,312.10617 1834.9248,311.11624 C 1834.9248,311.11624 1834.3943,302.38364 1834.3943,302.38364 C 1834.3943,302.38364 1834.3943,302.38364 1834.3943,302.38364 z M 1810.6718,286.40341 C 1810.6718,280.32244 1813.0756,274.17076 1818.874,274.17076 C 1823.8941,274.17076 1826.5456,278.27187 1826.5456,286.40341 C 1826.5456,286.40341 1810.6718,286.40341 1810.6718,286.40341 C 1810.6718,286.40341 1810.6718,286.40341 1810.6718,286.40341 z M 1846.1677,313.34355 L 1857.2335,313.34355 C 1857.2335,313.34355 1857.2335,288.17113 1857.2335,288.17113 C 1857.2335,279.61536 1862.2537,276.85771 1866.7793,276.85771 C 1867.9458,276.85771 1868.9358,277.03449 1869.8906,277.3173 C 1869.8906,277.3173 1869.8906,266.95844 1869.8906,266.95844 C 1869.2894,266.85237 1868.7592,266.67559 1868.0521,266.67559 C 1861.1579,266.67559 1857.693,272.22626 1856.3498,275.79706 C 1856.3498,275.79706 1856.1728,275.79706 1856.1728,275.79706 C 1856.1728,273.03941 1855.89,270.17569 1855.8193,267.41803 C 1855.8193,267.41803 1845.8141,267.41803 1845.8141,267.41803 C 1846.097,269.4686 1846.1677,272.12019 1846.1677,274.98391 C 1846.1677,274.98391 1846.1677,313.34355 1846.1677,313.34355 L 1846.1677,313.34355 z M 1877.2087,313.34355 L 1888.2746,313.34355 C 1888.2746,313.34355 1888.2746,286.58019 1888.2746,286.58019 C 1888.2746,280.71136 1890.3252,275.79706 1896.1236,275.79706 C 1900.6844,275.79706 1902.4518,278.7315 1902.4518,285.76704 C 1902.4518,285.76704 1902.4518,313.34355 1902.4518,313.34355 L 1913.518,313.34355 C 1913.518,313.34355 1913.518,283.71647 1913.518,283.71647 C 1913.518,274.45361 1910.4067,266.67559 1899.9772,266.67559 C 1892.4817,266.67559 1889.3353,271.69596 1887.7444,274.45361 C 1887.7444,274.45361 1887.8503,274.45361 1887.8503,274.45361 C 1887.8503,274.45361 1887.5675,274.45361 1887.5675,274.45361 C 1887.5675,272.12019 1887.285,269.7161 1887.2143,267.41803 C 1887.2143,267.41803 1876.8552,267.41803 1876.8552,267.41803 C 1877.138,269.4686 1877.2087,272.12019 1877.2087,274.98391 C 1877.2087,274.98391 1877.2087,313.34355 1877.2087,313.34355 L 1877.2087,313.34355 z M 1972.2063,267.41803 L 1964.8878,267.41803 L 1964.8878,275.51422 L 1972.2063,275.51422 C 1972.2063,275.51422 1972.2063,300.68663 1972.2063,300.68663 C 1972.2063,310.30309 1976.8733,314.05063 1985.0755,314.05063 C 1988.3635,314.05063 1990.7677,313.34355 1992.4644,312.5304 C 1992.4644,312.5304 1992.4644,304.68171 1992.4644,304.68171 C 1991.6514,305.1413 1990.2371,305.67164 1988.2572,305.67164 C 1985.0755,305.67164 1983.2722,304.25743 1983.2722,299.34318 C 1983.2722,299.34318 1983.2722,275.51422 1983.2722,275.51422 L 1992.4644,275.51422 L 1992.4644,267.41803 L 1983.2722,267.41803 L 1983.2722,254.54902 L 1972.2063,257.94304 L 1972.2063,267.41803 L 1972.2063,267.41803 z M 2000.5959,313.34355 L 2011.6621,313.34355 L 2011.6621,267.41803 L 2000.5959,267.41803 L 2000.5959,313.34355 L 2000.5959,313.34355 z M 2000.4193,258.75619 L 2011.8035,258.75619 L 2011.8035,247.867 L 2000.4193,247.867 L 2000.4193,258.75619 L 2000.4193,258.75619 z M 2032.8746,290.32778 C 2032.8746,282.65583 2034.5717,274.55968 2041.7132,274.55968 C 2048.8551,274.55968 2050.4459,282.65583 2050.4459,290.32778 C 2050.4459,297.99969 2048.8551,306.20194 2041.7132,306.20194 C 2034.5717,306.20194 2032.8746,297.99969 2032.8746,290.32778 C 2032.8746,290.32778 2032.8746,290.32778 2032.8746,290.32778 z M 2021.4552,290.32778 C 2021.4552,309.59596 2032.3444,314.05063 2041.7132,314.05063 C 2051.0824,314.05063 2061.8654,309.59596 2061.8654,290.32778 C 2061.8654,271.58989 2051.0824,266.67559 2041.7132,266.67559 C 2032.3444,266.67559 2021.4552,271.58989 2021.4552,290.32778 C 2021.4552,290.32778 2021.4552,290.32778 2021.4552,290.32778 z M 2070.5981,313.34355 L 2081.664,313.34355 C 2081.664,313.34355 2081.664,286.58019 2081.664,286.58019 C 2081.664,280.71136 2083.7146,275.79706 2089.5126,275.79706 C 2094.0734,275.79706 2095.8412,278.7315 2095.8412,285.76704 C 2095.8412,285.76704 2095.8412,313.34355 2095.8412,313.34355 L 2106.907,313.34355 C 2106.907,313.34355 2106.907,283.71647 2106.907,283.71647 C 2106.907,274.45361 2103.7957,266.67559 2093.3311,266.67559 C 2085.8711,266.67559 2082.7247,271.69596 2081.1334,274.45361 C 2081.1334,274.45361 2081.2041,274.45361 2081.2041,274.45361 C 2081.2041,274.45361 2080.9569,274.45361 2080.9569,274.45361 C 2080.9569,272.12019 2080.674,269.7161 2080.6033,267.41803 C 2080.6033,267.41803 2070.2446,267.41803 2070.2446,267.41803 C 2070.5274,269.4686 2070.5981,272.12019 2070.5981,274.98391 C 2070.5981,274.98391 2070.5981,313.34355 2070.5981,313.34355 L 2070.5981,313.34355 z M 2162.5551,313.34355 L 2173.621,313.34355 L 2173.621,246.45283 L 2162.5551,246.45283 L 2162.5551,313.34355 z "
           style="fill:black;fill-rule:nonzero;stroke:none"
           id="path11526" />
        <path
           d="M 1926.4575,279.08502 C 1928.6141,277.28194 1933.5284,274.66571 1939.0439,274.63035 C 1945.0896,274.55968 1947.6704,278.13049 1947.6704,282.65583 C 1947.6704,282.65583 1947.6704,284.35284 1947.6704,284.35284 C 1947.6704,284.35284 1945.4432,284.35284 1945.4432,284.35284 C 1931.4426,284.35284 1921.1897,288.17113 1921.1897,300.65127 C 1921.1897,309.20709 1927.8011,314.12134 1934.9426,314.12134 C 1941.554,314.12134 1944.9482,312.38897 1948.0591,308.88888 C 1948.0591,308.88888 1948.1654,311.71725 1948.5897,313.41426 C 1948.5897,313.41426 1958.5948,313.41426 1958.5948,313.41426 C 1958.312,311.64654 1957.9584,308.60607 1957.9584,305.28272 C 1957.9584,305.28272 1957.9584,285.23674 1957.9584,285.23674 C 1957.9584,273.71114 1954.6705,266.74631 1940.3874,266.74631 C 1933.3518,266.74631 1928.9676,268.72617 1925.8567,270.14033 C 1925.8567,270.14033 1926.4575,279.08502 1926.4575,279.08502 C 1926.4575,279.08502 1926.4575,279.08502 1926.4575,279.08502 z M 1947.5997,293.50966 C 1947.5997,301.71192 1945.1955,306.62621 1938.5841,306.62621 C 1934.3062,306.62621 1931.5488,303.79785 1931.5488,299.59063 C 1931.5488,292.90865 1937.1698,290.92879 1946.6097,290.92879 C 1946.6097,290.92879 1947.5997,290.92879 1947.5997,290.92879 L 1947.5997,293.50966 C 1947.5997,293.50966 1947.5997,293.50966 1947.5997,293.50966 z "
           style="fill:black;fill-rule:nonzero;stroke:none"
           id="path11530" />
        <path
           d="M 2120.4478,278.83757 C 2122.6043,277.06984 2127.4835,274.41826 2133.0342,274.3829 C 2139.0443,274.34754 2141.6607,277.88299 2141.6607,282.44373 C 2141.6607,282.44373 2141.6607,284.14074 2141.6607,284.14074 C 2141.6607,284.14074 2139.3979,284.14074 2139.3979,284.14074 C 2125.3973,284.14074 2115.1799,287.92368 2115.1799,300.43918 C 2115.1799,308.99495 2121.7913,313.90925 2128.9329,313.90925 C 2135.5087,313.90925 2138.938,312.14152 2142.0494,308.64139 C 2142.0494,308.64139 2142.1556,311.46976 2142.5799,313.16677 C 2142.5799,313.16677 2152.5495,313.16677 2152.5495,313.16677 C 2152.3022,311.39904 2151.9487,308.35858 2151.9487,305.07058 C 2151.9487,305.07058 2151.9487,284.98925 2151.9487,284.98925 C 2151.9487,273.49904 2148.6252,266.53417 2134.3421,266.53417 C 2127.3065,266.53417 2122.9579,268.47867 2119.8114,269.92823 C 2119.8114,269.92823 2120.4478,278.83757 2120.4478,278.83757 C 2120.4478,278.83757 2120.4478,278.83757 2120.4478,278.83757 z M 2141.5899,293.29757 C 2141.5899,301.49978 2139.1857,306.41408 2132.5743,306.41408 C 2128.2965,306.41408 2125.5387,303.55035 2125.5387,299.34318 C 2125.5387,292.66116 2131.1601,290.71665 2140.6,290.71665 C 2140.6,290.71665 2141.5899,290.71665 2141.5899,290.71665 L 2141.5899,293.29757 C 2141.5899,293.29757 2141.5899,293.29757 2141.5899,293.29757 z "
           style="fill:black;fill-rule:nonzero;stroke:none"
           id="path11534" />
        <path
           d="M 1850.9405,354.31942 C 1851.6828,353.64769 1853.4858,352.72847 1855.4657,352.69312 C 1857.6578,352.69312 1858.5771,353.9659 1858.5771,355.5922 C 1858.5771,355.5922 1858.5771,356.22857 1858.5771,356.22857 C 1858.5771,356.22857 1857.7637,356.22857 1857.7637,356.22857 C 1852.708,356.22857 1849.0313,357.60741 1849.0313,362.09744 C 1849.0313,365.20861 1851.4,366.97634 1853.9808,366.97634 C 1856.385,366.97634 1857.6222,366.33997 1858.7185,365.06719 C 1858.7185,365.06719 1858.7536,366.09248 1858.9306,366.72889 C 1858.9306,366.72889 1862.5365,366.72889 1862.5365,366.72889 C 1862.4307,366.05712 1862.2893,364.96116 1862.2893,363.79445 C 1862.2893,363.79445 1862.2893,356.54677 1862.2893,356.54677 C 1862.2893,352.37495 1861.0871,349.86475 1855.9607,349.86475 C 1853.4151,349.86475 1851.8242,350.57187 1850.6929,351.10217 C 1850.6929,351.10217 1850.9405,354.31942 1850.9405,354.31942 C 1850.9405,354.31942 1850.9405,354.31942 1850.9405,354.31942 z M 1858.5771,359.51656 C 1858.5771,362.48631 1857.693,364.25404 1855.3243,364.25404 C 1853.7686,364.25404 1852.7435,363.22875 1852.7435,361.70852 C 1852.7435,359.30443 1854.7942,358.59735 1858.1879,358.59735 C 1858.1879,358.59735 1858.5771,358.59735 1858.5771,358.59735 L 1858.5771,359.51656 C 1858.5771,359.51656 1858.5771,359.51656 1858.5771,359.51656 z "
           style="fill:black;fill-rule:nonzero;stroke:none"
           id="path11538" />
        <path
           d="M 1887.285,354.31942 C 1888.0273,353.64769 1889.8302,352.72847 1891.8102,352.69312 C 1894.0023,352.69312 1894.9215,353.9659 1894.9215,355.5922 C 1894.9215,355.5922 1894.9215,356.22857 1894.9215,356.22857 C 1894.9215,356.22857 1894.1081,356.22857 1894.1081,356.22857 C 1889.0524,356.22857 1885.3758,357.60741 1885.3758,362.09744 C 1885.3758,365.20861 1887.7444,366.97634 1890.3252,366.97634 C 1892.7294,366.97634 1893.9316,366.33997 1895.0629,365.06719 C 1895.0629,365.06719 1895.0981,366.09248 1895.2395,366.72889 C 1895.2395,366.72889 1898.881,366.72889 1898.881,366.72889 C 1898.7751,366.05712 1898.6337,364.96116 1898.6337,363.79445 C 1898.6337,363.79445 1898.6337,356.54677 1898.6337,356.54677 C 1898.6337,352.37495 1897.4316,349.86475 1892.3052,349.86475 C 1889.7595,349.86475 1888.1687,350.57187 1887.0373,351.10217 C 1887.0373,351.10217 1887.285,354.31942 1887.285,354.31942 C 1887.285,354.31942 1887.285,354.31942 1887.285,354.31942 z M 1894.9215,359.51656 C 1894.9215,362.48631 1894.0374,364.25404 1891.6336,364.25404 C 1890.1131,364.25404 1889.088,363.22875 1889.088,361.70852 C 1889.088,359.30443 1891.1386,358.59735 1894.568,358.59735 C 1894.568,358.59735 1894.9215,358.59735 1894.9215,358.59735 L 1894.9215,359.51656 C 1894.9215,359.51656 1894.9215,359.51656 1894.9215,359.51656 z "
           style="fill:black;fill-rule:nonzero;stroke:none"
           id="path11542" />
      </g>
    </g>
  </g>
</svg>
